<svg preserveAspectRatio="none" overflow="visible" style="display: block;" width="109.455" height="43" viewBox="0 0 109.455 43" fill="none" xmlns="http://www.w3.org/2000/svg">
<g id="onemain-vertical.svg">
<path id="Vector" fill-rule="evenodd" clip-rule="evenodd" d="M5.5151 11.0553C5.5151 7.11679 7.14187 5.06193 9.4536 5.06193C12.0222 5.06193 13.3921 6.85994 13.3921 11.0553C13.3921 15.2506 11.9366 17.1342 9.53922 17.1342C6.97063 17.1342 5.5151 15.3362 5.5151 11.0553ZM0.977273 11.2265C0.977273 16.963 3.97395 20.8159 9.36798 20.8159C14.4196 20.8159 17.9299 17.1342 17.9299 11.0553C17.9299 5.66126 15.1045 1.46591 9.53922 1.46591C4.23081 1.46591 0.977273 5.49003 0.977273 11.2265ZM29.4029 20.4735H31.8859C32.4852 20.4735 32.6564 20.2165 32.6564 19.7029V11.9115C32.6564 9.00043 31.3722 7.1168 28.4611 7.1168C26.92 7.1168 25.3788 7.71613 24.1802 8.65795L24.0946 8.05861C24.009 7.5449 23.752 7.45928 23.324 7.45928H21.0979C20.4985 7.45928 20.3273 7.71614 20.3273 8.22985V19.7885C20.3273 20.2165 20.6697 20.4735 21.0979 20.4735H23.5808C24.0946 20.4735 24.3514 20.2165 24.3514 19.7029V11.7403C25.122 11.1409 26.235 10.7129 27.0912 10.7129C28.3755 10.7129 28.6323 11.4833 28.6323 12.5965V19.7029C28.6323 20.2165 28.8036 20.4735 29.4029 20.4735ZM41.7322 10.1135C40.3622 10.1135 39.5061 11.2265 39.3348 12.4252H43.787C43.787 11.3121 43.102 10.1135 41.7322 10.1135ZM46.7837 14.9938H39.2492C39.5917 16.7062 41.0472 17.648 42.674 17.648C43.8726 17.648 44.9857 17.3912 46.0131 16.963C46.0987 16.8774 46.1843 16.8774 46.3556 16.8774C46.6125 16.8774 46.6981 17.0486 46.7837 17.2199C46.8162 17.3827 46.8984 17.6696 46.9878 17.9813C47.1331 18.4889 47.2975 19.0626 47.2975 19.2748C47.2975 19.5585 47.1212 19.666 46.9147 19.7918C46.8719 19.8178 46.8278 19.8447 46.7837 19.8741C45.3282 20.5591 43.5302 20.8159 41.9034 20.8159C37.6225 20.8159 34.9682 18.1617 34.9682 13.8807C34.9682 9.68538 37.7937 7.03117 41.9034 7.03117C43.6158 7.03117 45.0713 7.71614 46.0987 8.74356C47.4687 10.1991 47.7255 11.9971 47.7255 13.8807V14.2232C47.7255 14.9082 47.4687 14.9938 46.7837 14.9938ZM90.0216 20.4735H92.4189C93.0182 20.4735 93.2751 20.2165 93.1895 19.7029V8.14423C93.1895 7.63051 92.9326 7.45927 92.4189 7.45927H90.0216C89.5078 7.45927 89.1654 7.63051 89.1654 8.14423V19.7029C89.1654 20.3022 89.4222 20.4735 90.0216 20.4735ZM89.0798 3.86326C89.0798 5.14755 90.1928 5.8325 91.2202 5.8325C92.2476 5.8325 93.3607 5.14755 93.3607 3.86326C93.3607 2.57896 92.3333 1.80838 91.2202 1.80838C90.1928 1.80838 89.0798 2.57896 89.0798 3.86326ZM69.9866 20.4735H67.3323C66.6474 20.4735 66.4761 20.1309 66.4761 19.3604L66.2193 10.1991H66.1337L62.1096 19.8741C61.8527 20.3878 61.5102 20.4735 61.1678 20.4735H60.1403C59.6266 20.4735 59.3697 20.3878 59.0273 19.8741L54.4038 10.1991H54.3182L54.147 19.6173C54.147 20.3878 53.8044 20.4735 53.2052 20.4735H50.979C50.3797 20.4735 50.0372 20.2165 50.0372 19.7029V19.6173L50.7222 2.7502C50.7222 2.06525 51.0646 1.89401 51.5784 1.89401H53.5476C54.147 1.89401 54.4038 2.15087 54.6607 2.57896L60.5684 14.6513H60.654L66.1337 2.57896C66.3905 2.15087 66.6474 1.89401 67.2467 1.89401H69.1304C69.6441 1.89401 69.8153 2.06525 69.901 2.57896L70.7572 19.7029C70.7572 20.2165 70.5003 20.4735 69.9866 20.4735ZM81.7164 11.3121C81.2027 10.8841 80.3465 10.3703 79.5759 10.3703C78.2917 10.3703 77.0073 11.4833 77.0073 13.9664C77.0073 15.5932 77.4355 17.648 79.4903 17.648C80.4322 17.648 81.4596 16.963 81.7164 16.535V11.3121ZM86.2543 20.4735H84.7987C83.2576 20.4735 82.5726 20.0453 82.2302 19.2748H82.1446C81.4596 20.1309 79.6616 20.8159 78.3773 20.8159C74.5244 20.8159 72.7264 17.7336 72.7264 14.2232C72.7264 9.51414 75.6375 7.03117 78.6341 7.03117C80.1753 7.03117 81.374 7.71614 81.8876 8.57233L81.9732 7.97299C81.9732 7.71614 82.2302 7.45928 82.5726 7.45928H84.97C85.3125 7.45928 85.6549 7.63052 85.6549 8.05861V17.3055C85.6549 17.5624 85.7405 17.7336 86.0831 17.7336H86.3399C86.6823 17.7336 86.9393 17.9048 86.9393 18.2473V19.7885C86.8535 20.2165 86.5967 20.4735 86.2543 20.4735ZM108.087 20.4735H105.604C105.005 20.4735 104.834 20.2165 104.834 19.7029V12.5965C104.834 11.4834 104.577 10.7129 103.293 10.7129C102.437 10.7129 101.324 11.1409 100.553 11.7403V19.7029C100.553 20.2165 100.382 20.4735 99.7825 20.4735H97.2991C96.8711 20.4735 96.5285 20.2165 96.5285 19.7885V8.22986C96.5285 7.71614 96.6999 7.45928 97.2991 7.45928H99.5254C99.9535 7.45928 100.211 7.5449 100.296 8.05862L100.382 8.65795C101.58 7.71613 103.121 7.1168 104.662 7.1168C107.573 7.1168 108.857 9.00043 108.857 11.9115V19.7029C108.857 20.2165 108.686 20.4735 108.087 20.4735ZM94.9875 42.7345H96.1861C96.4429 42.7345 96.6143 42.5633 96.5286 42.2207V25.6962C96.5286 25.3537 96.4429 25.2681 96.1861 25.2681H96.1005L94.9018 25.4394C94.645 25.525 94.5593 25.6106 94.5593 25.953V42.2207C94.5593 42.5633 94.7306 42.7345 94.9875 42.7345ZM17.5875 27.1518C17.5875 27.4942 17.3306 27.5798 16.9025 27.5798H10.3954V32.9739H16.2175C16.56 32.9739 16.7313 33.1451 16.7313 33.402V34.2582C16.7313 34.6006 16.6456 34.6862 16.3032 34.6862H10.4811V42.1351C10.4811 42.5633 10.3954 42.6489 9.9673 42.6489H8.68302C8.25492 42.6489 8.16931 42.5633 8.16931 42.1351V26.2956C8.16931 25.953 8.25493 25.7818 8.5974 25.7818H17.245C17.5018 25.7818 17.6731 25.8674 17.6731 26.1244V26.21L17.5875 27.1518ZM21.0979 42.7345H19.9848C19.6423 42.7345 19.4711 42.5633 19.4711 42.2208V31.3471C19.4711 31.0047 19.6423 30.8333 19.9848 30.8333H21.0979C21.4403 30.8333 21.5259 31.0047 21.5259 31.3471V42.2208C21.5259 42.5633 21.3547 42.7345 21.0979 42.7345ZM20.4985 29.121C19.8135 29.121 19.2143 28.6929 19.2143 27.9223C19.2143 27.2374 19.8135 26.7236 20.4985 26.7236C21.1835 26.7236 21.7828 27.1518 21.7828 27.9223C21.7828 28.6929 21.0979 29.121 20.4985 29.121ZM33.3414 42.7345H34.5401C34.8826 42.7345 35.0538 42.5633 34.9682 42.1351V34.9431C34.9682 32.2889 33.8552 30.5765 31.0297 30.5765C29.5742 30.5765 28.1187 31.0903 27.0056 32.0321V31.2615C27.0056 30.9191 26.8343 30.8333 26.5775 30.8333H25.4644C25.122 30.8333 25.0364 31.0047 25.0364 31.3471V42.3064C25.0364 42.6489 25.2076 42.8201 25.4644 42.8201H26.6631C26.92 42.8201 27.0912 42.6489 27.0912 42.3064V33.8301C27.9475 33.0595 29.4029 32.3745 30.516 32.3745C32.4852 32.3745 32.9134 33.6588 32.9134 35.3712V42.2208C32.9134 42.5633 32.999 42.7345 33.3414 42.7345ZM46.0131 34.0013C45.4138 32.8883 44.2151 32.2033 43.0164 32.2033C41.1328 32.2033 39.6773 33.9157 39.6773 36.8268C39.6773 39.5665 40.9616 41.1933 42.674 41.1933C44.2151 41.1933 45.4994 39.9091 45.9275 38.7104V34.0013H46.0131ZM48.8385 42.7345H47.8111C46.6981 42.7345 46.1843 41.8783 46.1843 40.9365H46.0987C45.4994 42.0495 43.8726 42.9913 42.4172 42.9913C38.9923 42.9913 37.5367 40.0803 37.5367 36.998C37.5367 32.8883 39.9341 30.5765 42.7596 30.5765C43.9582 30.5765 45.3282 31.0903 46.0131 32.1177V31.3471C46.0131 31.0903 46.1843 30.9191 46.4413 30.9191H47.5543C47.8111 30.9191 47.9823 31.0903 47.9823 31.3471V39.9947C47.9823 40.5941 47.9823 40.9365 48.068 41.1077C48.1536 41.2789 48.3249 41.3645 48.4961 41.3645H48.6673C48.9242 41.3645 49.0098 41.4502 49.0098 41.7071V42.5633C49.1811 42.6489 49.0954 42.7345 48.8385 42.7345ZM59.9691 42.7345H61.0822C61.4246 42.7345 61.5102 42.5633 61.5958 42.1351V34.9431C61.5958 32.2889 60.4828 30.5765 57.6573 30.5765C56.2019 30.5765 54.7463 31.0903 53.6332 32.0321V31.2615C53.6332 30.9191 53.462 30.8333 53.2052 30.8333H52.0922C51.7496 30.8333 51.664 31.0047 51.664 31.3471V42.3064C51.664 42.6489 51.8352 42.8201 52.0922 42.8201H53.2908C53.5476 42.8201 53.7189 42.6489 53.7189 42.3064V33.8301C54.5751 33.0595 56.0306 32.3745 57.1437 32.3745C59.1129 32.3745 59.541 33.6588 59.541 35.3712V42.2208C59.541 42.5633 59.6266 42.7345 59.9691 42.7345ZM73.1545 42.3064C72.127 42.8201 70.9284 42.9913 69.8153 42.9913C65.9625 42.9913 64.0788 40.5083 64.0788 36.8268C64.0788 33.2307 66.3049 30.5765 69.9866 30.5765C71.014 30.5765 72.2983 30.8333 73.1545 31.2615C73.3257 31.3471 73.4114 31.4327 73.4114 31.6039C73.4114 31.6404 73.4114 31.6613 73.4048 31.6799C73.3959 31.7051 73.375 31.726 73.3257 31.7752L73.1545 32.5458C73.1388 32.5772 73.126 32.6057 73.1145 32.6314C73.0632 32.7456 73.0375 32.8026 72.8976 32.8026C72.812 32.8026 72.7264 32.8026 72.6408 32.717C71.8702 32.3745 71.014 32.1177 70.0722 32.1177C67.7605 32.1177 66.2193 33.8301 66.2193 36.6555C66.2193 39.1385 67.3323 41.3645 69.901 41.3645C70.9284 41.3645 71.8702 41.1077 72.6408 40.7653C72.7264 40.7653 72.812 40.6797 72.812 40.6797C72.8976 40.6797 72.9832 40.7653 73.0689 40.9365L73.3257 41.6215C73.3257 41.6643 73.3471 41.7071 73.3686 41.7499C73.39 41.7926 73.4114 41.8355 73.4114 41.8783C73.4114 42.1351 73.4114 42.1351 73.1545 42.3064ZM76.2367 42.7345H77.3499C77.6067 42.7345 77.7779 42.5633 77.7779 42.2208V31.3471C77.7779 31.0047 77.6923 30.8333 77.3499 30.8333H76.2367C75.8943 30.8333 75.7231 31.0047 75.7231 31.3471V42.2208C75.7231 42.5633 75.8943 42.7345 76.2367 42.7345ZM75.4662 27.9223C75.4662 28.6929 76.0655 29.121 76.7505 29.121C77.3499 29.121 78.0348 28.6929 78.0348 27.9223C78.0348 27.1518 77.4355 26.7236 76.7505 26.7236C76.0655 26.7236 75.4662 27.2374 75.4662 27.9223ZM88.9942 34.0013C88.3948 32.8883 87.1961 32.2033 85.9975 32.2033C84.1138 32.2033 82.6583 33.9157 82.6583 36.8268C82.6583 39.5665 83.9425 41.1933 85.6549 41.1933C87.1961 41.1933 88.4804 39.9091 88.9085 38.7104V34.0013H88.9942ZM91.8196 42.7345H90.7922C89.679 42.7345 89.1654 41.8783 89.1654 40.9365H89.0798C88.4804 42.0495 86.8536 42.9913 85.3981 42.9913C81.9733 42.9913 80.5178 40.0803 80.5178 36.998C80.5178 32.8883 82.9151 30.5765 85.7406 30.5765C86.9392 30.5765 88.3092 31.0903 88.9942 32.1177V31.3471C88.9942 31.0903 89.1654 30.9191 89.4222 30.9191H90.5352C90.7922 30.9191 90.9634 31.0903 90.9634 31.3471V39.9947C90.9634 40.5941 90.9634 40.9365 91.049 41.1077C91.1346 41.2789 91.3058 41.3645 91.4771 41.3645H91.6483C91.9052 41.3645 91.9908 41.4502 91.9908 41.7071V42.5633C92.162 42.6489 92.0764 42.7345 91.8196 42.7345ZM99.7825 40.4227H99.9535C100.211 40.4227 100.382 40.5083 100.296 40.6797C100.296 40.9365 100.125 41.0221 99.9535 41.0221H99.7825V40.4227ZM100.468 41.8783H100.724L100.296 41.1933C100.468 41.1077 100.639 40.9365 100.639 40.6797C100.639 40.2515 100.296 40.1659 99.9535 40.1659H99.6105C99.5685 40.1659 99.5469 40.1659 99.5362 40.1767C99.5254 40.1873 99.5254 40.2087 99.5254 40.2515V41.7927C99.5254 41.8355 99.5254 41.8569 99.5362 41.8676C99.5469 41.8783 99.5685 41.8783 99.6105 41.8783H99.7825C99.8675 41.8783 99.8675 41.7927 99.8675 41.7927V41.1933H100.039L100.382 41.7927C100.382 41.8355 100.382 41.8569 100.392 41.8676C100.403 41.8783 100.425 41.8783 100.468 41.8783ZM98.6694 41.0221C98.6694 40.2515 99.2684 39.5665 100.125 39.5665C100.896 39.5665 101.58 40.2515 101.58 41.0221C101.58 41.7927 100.981 42.4776 100.125 42.4776C99.2684 42.4776 98.6694 41.7927 98.6694 41.0221ZM98.3263 41.0221C98.3263 42.0495 99.0974 42.8201 100.125 42.8201C101.067 42.8201 101.837 42.0495 101.923 41.0221C101.923 39.9947 101.152 39.2241 100.125 39.2241C99.0974 39.2241 98.3263 39.9947 98.3263 41.0221Z" fill="#2659D9"/>
</g>
</svg>
